<?xml version="1.0" encoding="UTF-8" standalone="no"?><!DOCTYPE svg PUBLIC "-//W3C//DTD SVG 1.1//EN" "http://www.w3.org/Graphics/SVG/1.1/DTD/svg11.dtd"><svg width="100%" height="100%" viewBox="0 0 150 150" version="1.1" xmlns="http://www.w3.org/2000/svg" xmlns:xlink="http://www.w3.org/1999/xlink" xml:space="preserve" xmlns:serif="http://www.serif.com/" style="fill-rule:evenodd;clip-rule:evenodd;stroke-linejoin:round;stroke-miterlimit:2;"><path id="path2" d="M150,75c0,41.421 -33.579,75 -75,75c-41.417,0 -75,-33.579 -75,-75c0,-41.417 33.583,-75 75,-75c41.421,0 75,33.583 75,75" style="fill:#ffcc4d;fill-rule:nonzero;"/><ellipse id="ellipse4" cx="47.917" cy="60.417" rx="10.417" ry="14.583" style="fill:#66471b;"/><ellipse id="ellipse6" cx="102.083" cy="60.417" rx="10.417" ry="14.583" style="fill:#66471b;"/><path id="path8" d="M29.167,88.592c-0,16.516 19.15,37.5 45.833,37.5c26.683,-0 45.833,-20.834 45.833,-37.5c0,-0 -43.054,11.483 -91.666,-0Z" style="fill:#66471b;fill-rule:nonzero;"/><path id="path10" d="M77.271,98.35l-4.546,-0.021c-13.4,-0.308 -22.725,-2.483 -22.725,-2.483l0,29.004c0,12.5 8.333,25 25,25c16.667,-0 25,-12.5 25,-25l0,-28.833c-8.008,1.641 -15.779,2.258 -22.729,2.333Z" style="fill:#e8596e;fill-rule:nonzero;"/><path id="path12" d="M75,132.679c1.254,0 2.271,-1.016 2.271,-2.271l-0,-32.058l-4.546,-0.021l0,32.079c0.004,1.255 1.021,2.271 2.275,2.271Z" style="fill:#dd2f45;fill-rule:nonzero;"/></svg>