<?xml version="1.0" encoding="UTF-8" standalone="no"?>
<svg
   xmlns:dc="http://purl.org/dc/elements/1.1/"
   xmlns:cc="http://creativecommons.org/ns#"
   xmlns:rdf="http://www.w3.org/1999/02/22-rdf-syntax-ns#"
   xmlns:svg="http://www.w3.org/2000/svg"
   xmlns="http://www.w3.org/2000/svg"
   xmlns:sodipodi="http://sodipodi.sourceforge.net/DTD/sodipodi-0.dtd"
   xmlns:inkscape="http://www.inkscape.org/namespaces/inkscape"
   viewBox="0 0 36 36"
   version="1.1"
   id="svg14"
   sodipodi:docname="icon-light.svg"
   inkscape:version="1.0 (4035a4fb49, 2020-05-01)">
  <metadata
     id="metadata20">
    <rdf:RDF>
      <cc:Work
         rdf:about="">
        <dc:format>image/svg+xml</dc:format>
        <dc:type
           rdf:resource="http://purl.org/dc/dcmitype/StillImage" />
      </cc:Work>
    </rdf:RDF>
  </metadata>
  <defs
     id="defs18" />
  <sodipodi:namedview
     inkscape:document-rotation="0"
     pagecolor="#ffffff"
     bordercolor="#666666"
     borderopacity="1"
     objecttolerance="10"
     gridtolerance="10"
     guidetolerance="10"
     inkscape:pageopacity="0"
     inkscape:pageshadow="2"
     inkscape:window-width="1536"
     inkscape:window-height="801"
     id="namedview16"
     showgrid="false"
     inkscape:zoom="16.972222"
     inkscape:cx="18"
     inkscape:cy="18"
     inkscape:window-x="-8"
     inkscape:window-y="-8"
     inkscape:window-maximized="1"
     inkscape:current-layer="svg14" />
  <path
     inkscape:export-ydpi="249.08109"
     inkscape:export-xdpi="249.08109"
     fill="#FFCC4D"
     d="M36 18c0 9.941-8.059 18-18 18-9.94 0-18-8.059-18-18C0 8.06 8.06 0 18 0c9.941 0 18 8.06 18 18"
     id="path2"
     style="fill-opacity:1;fill:#ffcc4d;stroke:#ffffff;stroke-opacity:1;opacity:1" />
  <ellipse
     fill="#66471B"
     cx="11.5"
     cy="14.5"
     rx="2.5"
     ry="3.5"
     id="ellipse4" />
  <ellipse
     fill="#66471B"
     cx="24.5"
     cy="14.5"
     rx="2.5"
     ry="3.5"
     id="ellipse6" />
  <path
     fill="#66471B"
     d="M7 21.262c0 3.964 4.596 9 11 9s11-5 11-9c0 0-10.333 2.756-22 0z"
     id="path8" />
  <path
     fill="#E8596E"
     d="M18.545 23.604l-1.091-.005c-3.216-.074-5.454-.596-5.454-.596v6.961c0 3 2 6 6 6s6-3 6-6v-6.92c-1.922.394-3.787.542-5.455.56z"
     id="path10" />
  <path
     fill="#DD2F45"
     d="M18 31.843c.301 0 .545-.244.545-.545v-7.694l-1.091-.005v7.699c.001.301.245.545.546.545z"
     id="path12" />
</svg>
