<?xml version="1.0" encoding="UTF-8" standalone="no"?>
<svg
   xmlns:dc="http://purl.org/dc/elements/1.1/"
   xmlns:cc="http://creativecommons.org/ns#"
   xmlns:rdf="http://www.w3.org/1999/02/22-rdf-syntax-ns#"
   xmlns:svg="http://www.w3.org/2000/svg"
   xmlns="http://www.w3.org/2000/svg"
   xmlns:sodipodi="http://sodipodi.sourceforge.net/DTD/sodipodi-0.dtd"
   xmlns:inkscape="http://www.inkscape.org/namespaces/inkscape"
   inkscape:version="1.0 (4035a4fb49, 2020-05-01)"
   sodipodi:docname="settings-dark.svg"
   id="svg4"
   version="1.1"
   viewBox="0 0 16 16"
   height="16"
   width="16">
  <metadata
     id="metadata10">
    <rdf:RDF>
      <cc:Work
         rdf:about="">
        <dc:format>image/svg+xml</dc:format>
        <dc:type
           rdf:resource="http://purl.org/dc/dcmitype/StillImage" />
      </cc:Work>
    </rdf:RDF>
  </metadata>
  <defs
     id="defs8" />
  <sodipodi:namedview
     inkscape:current-layer="svg4"
     inkscape:window-maximized="1"
     inkscape:window-y="-8"
     inkscape:window-x="-8"
     inkscape:cy="8"
     inkscape:cx="8"
     inkscape:zoom="39.625"
     showgrid="false"
     id="namedview6"
     inkscape:window-height="801"
     inkscape:window-width="1536"
     inkscape:pageshadow="2"
     inkscape:pageopacity="0"
     guidetolerance="10"
     gridtolerance="10"
     objecttolerance="10"
     borderopacity="1"
     bordercolor="#666666"
     pagecolor="#ffffff" />
  <path
     inkscape:export-ydpi="192"
     inkscape:export-xdpi="192"
     style="fill:#000000;fill-opacity:1"
     id="path2"
     d="M15 7h-2.1a4.967 4.967 0 0 0-.732-1.753l1.49-1.49a1 1 0 0 0-1.414-1.414l-1.49 1.49A4.968 4.968 0 0 0 9 3.1V1a1 1 0 0 0-2 0v2.1a4.968 4.968 0 0 0-1.753.732l-1.49-1.49a1 1 0 0 0-1.414 1.415l1.49 1.49A4.967 4.967 0 0 0 3.1 7H1a1 1 0 0 0 0 2h2.1a4.968 4.968 0 0 0 .737 1.763c-.014.013-.032.017-.045.03l-1.45 1.45a1 1 0 1 0 1.414 1.414l1.45-1.45c.013-.013.018-.031.03-.045A4.968 4.968 0 0 0 7 12.9V15a1 1 0 0 0 2 0v-2.1a4.968 4.968 0 0 0 1.753-.732l1.49 1.49a1 1 0 0 0 1.414-1.414l-1.49-1.49A4.967 4.967 0 0 0 12.9 9H15a1 1 0 0 0 0-2zM5 8a3 3 0 1 1 3 3 3 3 0 0 1-3-3z"
     fill="rgba(12, 12, 13, .8)" />
</svg>
